<svg width="375" height="812" viewBox="0 0 375 812" fill="none" xmlns="http://www.w3.org/2000/svg">
<rect width="375" height="812" rx="40" fill="url(#paint0_linear_1696_2242)"/>
<path d="M148.448 740.32C148.245 739.947 147.952 739.664 147.568 739.472C147.195 739.269 146.752 739.168 146.24 739.168C145.355 739.168 144.645 739.461 144.112 740.048C143.579 740.624 143.312 741.397 143.312 742.368C143.312 743.403 143.589 744.213 144.144 744.8C144.709 745.376 145.483 745.664 146.464 745.664C147.136 745.664 147.701 745.493 148.16 745.152C148.629 744.811 148.971 744.32 149.184 743.68H145.712V741.664H151.664V744.208C151.461 744.891 151.115 745.525 150.624 746.112C150.144 746.699 149.531 747.173 148.784 747.536C148.037 747.899 147.195 748.08 146.256 748.08C145.147 748.08 144.155 747.84 143.28 747.36C142.416 746.869 141.739 746.192 141.248 745.328C140.768 744.464 140.528 743.477 140.528 742.368C140.528 741.259 140.768 740.272 141.248 739.408C141.739 738.533 142.416 737.856 143.28 737.376C144.144 736.885 145.131 736.64 146.24 736.64C147.584 736.64 148.715 736.965 149.632 737.616C150.56 738.267 151.173 739.168 151.472 740.32H148.448ZM161.595 743.392C161.595 743.648 161.58 743.915 161.548 744.192H155.356C155.398 744.747 155.574 745.173 155.884 745.472C156.204 745.76 156.593 745.904 157.052 745.904C157.734 745.904 158.209 745.616 158.476 745.04H161.388C161.238 745.627 160.966 746.155 160.572 746.624C160.188 747.093 159.702 747.461 159.116 747.728C158.529 747.995 157.873 748.128 157.148 748.128C156.273 748.128 155.494 747.941 154.812 747.568C154.129 747.195 153.596 746.661 153.212 745.968C152.828 745.275 152.636 744.464 152.636 743.536C152.636 742.608 152.822 741.797 153.196 741.104C153.58 740.411 154.113 739.877 154.796 739.504C155.478 739.131 156.262 738.944 157.148 738.944C158.012 738.944 158.78 739.125 159.452 739.488C160.124 739.851 160.646 740.368 161.02 741.04C161.404 741.712 161.595 742.496 161.595 743.392ZM158.796 742.672C158.796 742.203 158.636 741.829 158.316 741.552C157.996 741.275 157.596 741.136 157.116 741.136C156.657 741.136 156.268 741.269 155.948 741.536C155.638 741.803 155.446 742.181 155.372 742.672H158.796ZM168.015 745.68V748H166.623C165.631 748 164.858 747.76 164.303 747.28C163.748 746.789 163.471 745.995 163.471 744.896V741.344H162.383V739.072H163.471V736.896H166.207V739.072H167.999V741.344H166.207V744.928C166.207 745.195 166.271 745.387 166.399 745.504C166.527 745.621 166.74 745.68 167.039 745.68H168.015ZM176.994 748.112C176.172 748.112 175.436 747.979 174.786 747.712C174.135 747.445 173.612 747.051 173.218 746.528C172.834 746.005 172.631 745.376 172.61 744.64H175.522C175.564 745.056 175.708 745.376 175.954 745.6C176.199 745.813 176.519 745.92 176.914 745.92C177.319 745.92 177.639 745.829 177.874 745.648C178.108 745.456 178.226 745.195 178.226 744.864C178.226 744.587 178.13 744.357 177.938 744.176C177.756 743.995 177.527 743.845 177.25 743.728C176.983 743.611 176.599 743.477 176.098 743.328C175.372 743.104 174.78 742.88 174.322 742.656C173.863 742.432 173.468 742.101 173.138 741.664C172.807 741.227 172.642 740.656 172.642 739.952C172.642 738.907 173.02 738.091 173.778 737.504C174.535 736.907 175.522 736.608 176.738 736.608C177.975 736.608 178.972 736.907 179.73 737.504C180.487 738.091 180.892 738.912 180.946 739.968H177.986C177.964 739.605 177.831 739.323 177.586 739.12C177.34 738.907 177.026 738.8 176.641 738.8C176.311 738.8 176.044 738.891 175.842 739.072C175.639 739.243 175.538 739.493 175.538 739.824C175.538 740.187 175.708 740.469 176.049 740.672C176.391 740.875 176.924 741.093 177.65 741.328C178.375 741.573 178.962 741.808 179.41 742.032C179.868 742.256 180.263 742.581 180.594 743.008C180.924 743.435 181.09 743.984 181.09 744.656C181.09 745.296 180.924 745.877 180.594 746.4C180.274 746.923 179.804 747.339 179.186 747.648C178.567 747.957 177.836 748.112 176.994 748.112ZM187.749 745.68V748H186.357C185.365 748 184.592 747.76 184.037 747.28C183.483 746.789 183.205 745.995 183.205 744.896V741.344H182.117V739.072H183.205V736.896H185.941V739.072H187.733V741.344H185.941V744.928C185.941 745.195 186.005 745.387 186.133 745.504C186.261 745.621 186.475 745.68 186.773 745.68H187.749ZM188.729 743.52C188.729 742.603 188.9 741.797 189.241 741.104C189.593 740.411 190.068 739.877 190.665 739.504C191.263 739.131 191.929 738.944 192.665 738.944C193.295 738.944 193.844 739.072 194.313 739.328C194.793 739.584 195.161 739.92 195.417 740.336V739.072H198.153V748H195.417V746.736C195.151 747.152 194.777 747.488 194.297 747.744C193.828 748 193.279 748.128 192.649 748.128C191.924 748.128 191.263 747.941 190.665 747.568C190.068 747.184 189.593 746.645 189.241 745.952C188.9 745.248 188.729 744.437 188.729 743.52ZM195.417 743.536C195.417 742.853 195.225 742.315 194.841 741.92C194.468 741.525 194.009 741.328 193.465 741.328C192.921 741.328 192.457 741.525 192.073 741.92C191.7 742.304 191.513 742.837 191.513 743.52C191.513 744.203 191.7 744.747 192.073 745.152C192.457 745.547 192.921 745.744 193.465 745.744C194.009 745.744 194.468 745.547 194.841 745.152C195.225 744.757 195.417 744.219 195.417 743.536ZM202.869 740.56C203.189 740.069 203.589 739.685 204.069 739.408C204.549 739.12 205.082 738.976 205.669 738.976V741.872H204.917C204.234 741.872 203.722 742.021 203.381 742.32C203.039 742.608 202.869 743.12 202.869 743.856V748H200.133V739.072H202.869V740.56ZM211.952 745.68V748H210.56C209.568 748 208.795 747.76 208.24 747.28C207.686 746.789 207.408 745.995 207.408 744.896V741.344H206.32V739.072H207.408V736.896H210.144V739.072H211.936V741.344H210.144V744.928C210.144 745.195 210.208 745.387 210.336 745.504C210.464 745.621 210.678 745.68 210.976 745.68H211.952ZM221.892 743.392C221.892 743.648 221.876 743.915 221.844 744.192H215.652C215.695 744.747 215.871 745.173 216.18 745.472C216.5 745.76 216.89 745.904 217.348 745.904C218.031 745.904 218.506 745.616 218.772 745.04H221.684C221.535 745.627 221.263 746.155 220.868 746.624C220.484 747.093 219.999 747.461 219.412 747.728C218.826 747.995 218.17 748.128 217.444 748.128C216.57 748.128 215.791 747.941 215.108 747.568C214.426 747.195 213.892 746.661 213.508 745.968C213.124 745.275 212.932 744.464 212.932 743.536C212.932 742.608 213.119 741.797 213.492 741.104C213.876 740.411 214.41 739.877 215.092 739.504C215.775 739.131 216.559 738.944 217.444 738.944C218.308 738.944 219.076 739.125 219.748 739.488C220.42 739.851 220.943 740.368 221.316 741.04C221.7 741.712 221.892 742.496 221.892 743.392ZM219.092 742.672C219.092 742.203 218.932 741.829 218.612 741.552C218.292 741.275 217.892 741.136 217.412 741.136C216.954 741.136 216.564 741.269 216.244 741.536C215.935 741.803 215.743 742.181 215.668 742.672H219.092ZM222.792 743.52C222.792 742.603 222.962 741.797 223.304 741.104C223.656 740.411 224.13 739.877 224.728 739.504C225.325 739.131 225.992 738.944 226.728 738.944C227.314 738.944 227.848 739.067 228.328 739.312C228.818 739.557 229.202 739.888 229.48 740.304V736.16H232.216V748H229.48V746.72C229.224 747.147 228.856 747.488 228.376 747.744C227.906 748 227.357 748.128 226.728 748.128C225.992 748.128 225.325 747.941 224.728 747.568C224.13 747.184 223.656 746.645 223.304 745.952C222.962 745.248 222.792 744.437 222.792 743.52ZM229.48 743.536C229.48 742.853 229.288 742.315 228.904 741.92C228.53 741.525 228.072 741.328 227.528 741.328C226.984 741.328 226.52 741.525 226.136 741.92C225.762 742.304 225.576 742.837 225.576 743.52C225.576 744.203 225.762 744.747 226.136 745.152C226.52 745.547 226.984 745.744 227.528 745.744C228.072 745.744 228.53 745.547 228.904 745.152C229.288 744.757 229.48 744.219 229.48 743.536Z" fill="url(#paint1_linear_1696_2242)"/>
<path d="M121.754 440.454L117.02 453H115.13L110.396 440.454H112.142L116.084 451.272L120.026 440.454H121.754ZM127.852 453.162C126.928 453.162 126.088 452.952 125.332 452.532C124.588 452.112 124 451.518 123.568 450.75C123.148 449.97 122.938 449.07 122.938 448.05C122.938 447.042 123.154 446.154 123.586 445.386C124.03 444.606 124.63 444.012 125.386 443.604C126.142 443.184 126.988 442.974 127.924 442.974C128.86 442.974 129.706 443.184 130.462 443.604C131.218 444.012 131.812 444.6 132.244 445.368C132.688 446.136 132.91 447.03 132.91 448.05C132.91 449.07 132.682 449.97 132.226 450.75C131.782 451.518 131.176 452.112 130.408 452.532C129.64 452.952 128.788 453.162 127.852 453.162ZM127.852 451.722C128.44 451.722 128.992 451.584 129.508 451.308C130.024 451.032 130.438 450.618 130.75 450.066C131.074 449.514 131.236 448.842 131.236 448.05C131.236 447.258 131.08 446.586 130.768 446.034C130.456 445.482 130.048 445.074 129.544 444.81C129.04 444.534 128.494 444.396 127.906 444.396C127.306 444.396 126.754 444.534 126.25 444.81C125.758 445.074 125.362 445.482 125.062 446.034C124.762 446.586 124.612 447.258 124.612 448.05C124.612 448.854 124.756 449.532 125.044 450.084C125.344 450.636 125.74 451.05 126.232 451.326C126.724 451.59 127.264 451.722 127.852 451.722ZM134.452 448.05C134.452 447.03 134.656 446.142 135.064 445.386C135.472 444.618 136.036 444.024 136.756 443.604C137.488 443.184 138.322 442.974 139.258 442.974C140.47 442.974 141.466 443.268 142.246 443.856C143.038 444.444 143.56 445.26 143.812 446.304H142.048C141.88 445.704 141.55 445.23 141.058 444.882C140.578 444.534 139.978 444.36 139.258 444.36C138.322 444.36 137.566 444.684 136.99 445.332C136.414 445.968 136.126 446.874 136.126 448.05C136.126 449.238 136.414 450.156 136.99 450.804C137.566 451.452 138.322 451.776 139.258 451.776C139.978 451.776 140.578 451.608 141.058 451.272C141.538 450.936 141.868 450.456 142.048 449.832H143.812C143.548 450.84 143.02 451.65 142.228 452.262C141.436 452.862 140.446 453.162 139.258 453.162C138.322 453.162 137.488 452.952 136.756 452.532C136.036 452.112 135.472 451.518 135.064 450.75C134.656 449.982 134.452 449.082 134.452 448.05ZM154.997 447.69C154.997 448.002 154.979 448.332 154.943 448.68H147.059C147.119 449.652 147.449 450.414 148.049 450.966C148.661 451.506 149.399 451.776 150.263 451.776C150.971 451.776 151.559 451.614 152.027 451.29C152.507 450.954 152.843 450.51 153.035 449.958H154.799C154.535 450.906 154.007 451.68 153.215 452.28C152.423 452.868 151.439 453.162 150.263 453.162C149.327 453.162 148.487 452.952 147.743 452.532C147.011 452.112 146.435 451.518 146.015 450.75C145.595 449.97 145.385 449.07 145.385 448.05C145.385 447.03 145.589 446.136 145.997 445.368C146.405 444.6 146.975 444.012 147.707 443.604C148.451 443.184 149.303 442.974 150.263 442.974C151.199 442.974 152.027 443.178 152.747 443.586C153.467 443.994 154.019 444.558 154.403 445.278C154.799 445.986 154.997 446.79 154.997 447.69ZM153.305 447.348C153.305 446.724 153.167 446.19 152.891 445.746C152.615 445.29 152.237 444.948 151.757 444.72C151.289 444.48 150.767 444.36 150.191 444.36C149.363 444.36 148.655 444.624 148.067 445.152C147.491 445.68 147.161 446.412 147.077 447.348H153.305ZM150.209 440.724L147.707 442.254V440.958L150.209 439.464L152.693 440.958V442.254L150.209 440.724ZM166.764 442.956C167.964 442.956 168.936 443.322 169.68 444.054C170.424 444.774 170.796 445.818 170.796 447.186V453H169.176V447.42C169.176 446.436 168.93 445.686 168.438 445.17C167.946 444.642 167.274 444.378 166.422 444.378C165.558 444.378 164.868 444.648 164.352 445.188C163.848 445.728 163.596 446.514 163.596 447.546V453H161.958V443.136H163.596V444.54C163.92 444.036 164.358 443.646 164.91 443.37C165.474 443.094 166.092 442.956 166.764 442.956ZM177.774 453.162C176.85 453.162 176.01 452.952 175.254 452.532C174.51 452.112 173.922 451.518 173.49 450.75C173.07 449.97 172.86 449.07 172.86 448.05C172.86 447.042 173.076 446.154 173.508 445.386C173.952 444.606 174.552 444.012 175.308 443.604C176.064 443.184 176.91 442.974 177.846 442.974C178.782 442.974 179.628 443.184 180.384 443.604C181.14 444.012 181.734 444.6 182.166 445.368C182.61 446.136 182.832 447.03 182.832 448.05C182.832 449.07 182.604 449.97 182.148 450.75C181.704 451.518 181.098 452.112 180.33 452.532C179.562 452.952 178.71 453.162 177.774 453.162ZM177.774 451.722C178.362 451.722 178.914 451.584 179.43 451.308C179.946 451.032 180.36 450.618 180.672 450.066C180.996 449.514 181.158 448.842 181.158 448.05C181.158 447.258 181.002 446.586 180.69 446.034C180.378 445.482 179.97 445.074 179.466 444.81C178.962 444.534 178.416 444.396 177.828 444.396C177.228 444.396 176.676 444.534 176.172 444.81C175.68 445.074 175.284 445.482 174.984 446.034C174.684 446.586 174.534 447.258 174.534 448.05C174.534 448.854 174.678 449.532 174.966 450.084C175.266 450.636 175.662 451.05 176.154 451.326C176.646 451.59 177.186 451.722 177.774 451.722ZM189.172 448.05C189.172 447.03 189.376 446.142 189.784 445.386C190.192 444.618 190.756 444.024 191.476 443.604C192.208 443.184 193.042 442.974 193.978 442.974C195.19 442.974 196.186 443.268 196.966 443.856C197.758 444.444 198.28 445.26 198.532 446.304H196.768C196.6 445.704 196.27 445.23 195.778 444.882C195.298 444.534 194.698 444.36 193.978 444.36C193.042 444.36 192.286 444.684 191.71 445.332C191.134 445.968 190.846 446.874 190.846 448.05C190.846 449.238 191.134 450.156 191.71 450.804C192.286 451.452 193.042 451.776 193.978 451.776C194.698 451.776 195.298 451.608 195.778 451.272C196.258 450.936 196.588 450.456 196.768 449.832H198.532C198.268 450.84 197.74 451.65 196.948 452.262C196.156 452.862 195.166 453.162 193.978 453.162C193.042 453.162 192.208 452.952 191.476 452.532C190.756 452.112 190.192 451.518 189.784 450.75C189.376 449.982 189.172 449.082 189.172 448.05ZM205.02 453.162C204.096 453.162 203.256 452.952 202.5 452.532C201.756 452.112 201.168 451.518 200.736 450.75C200.316 449.97 200.106 449.07 200.106 448.05C200.106 447.042 200.322 446.154 200.754 445.386C201.198 444.606 201.798 444.012 202.554 443.604C203.31 443.184 204.156 442.974 205.092 442.974C206.028 442.974 206.874 443.184 207.63 443.604C208.386 444.012 208.98 444.6 209.412 445.368C209.856 446.136 210.078 447.03 210.078 448.05C210.078 449.07 209.85 449.97 209.394 450.75C208.95 451.518 208.344 452.112 207.576 452.532C206.808 452.952 205.956 453.162 205.02 453.162ZM205.02 451.722C205.608 451.722 206.16 451.584 206.676 451.308C207.192 451.032 207.606 450.618 207.918 450.066C208.242 449.514 208.404 448.842 208.404 448.05C208.404 447.258 208.248 446.586 207.936 446.034C207.624 445.482 207.216 445.074 206.712 444.81C206.208 444.534 205.662 444.396 205.074 444.396C204.474 444.396 203.922 444.534 203.418 444.81C202.926 445.074 202.53 445.482 202.23 446.034C201.93 446.586 201.78 447.258 201.78 448.05C201.78 448.854 201.924 449.532 202.212 450.084C202.512 450.636 202.908 451.05 203.4 451.326C203.892 451.59 204.432 451.722 205.02 451.722ZM217.038 442.956C218.238 442.956 219.21 443.322 219.954 444.054C220.698 444.774 221.07 445.818 221.07 447.186V453H219.45V447.42C219.45 446.436 219.204 445.686 218.712 445.17C218.22 444.642 217.548 444.378 216.696 444.378C215.832 444.378 215.142 444.648 214.626 445.188C214.122 445.728 213.87 446.514 213.87 447.546V453H212.232V443.136H213.87V444.54C214.194 444.036 214.632 443.646 215.184 443.37C215.748 443.094 216.366 442.956 217.038 442.956ZM225.743 444.486V450.3C225.743 450.78 225.845 451.122 226.049 451.326C226.253 451.518 226.607 451.614 227.111 451.614H228.317V453H226.841C225.929 453 225.245 452.79 224.789 452.37C224.333 451.95 224.105 451.26 224.105 450.3V444.486H222.827V443.136H224.105V440.652H225.743V443.136H228.317V444.486H225.743ZM231.94 444.738C232.228 444.174 232.636 443.736 233.164 443.424C233.704 443.112 234.358 442.956 235.126 442.956V444.648H234.694C232.858 444.648 231.94 445.644 231.94 447.636V453H230.302V443.136H231.94V444.738ZM241.319 453.162C240.395 453.162 239.555 452.952 238.799 452.532C238.055 452.112 237.467 451.518 237.035 450.75C236.615 449.97 236.405 449.07 236.405 448.05C236.405 447.042 236.621 446.154 237.053 445.386C237.497 444.606 238.097 444.012 238.853 443.604C239.609 443.184 240.455 442.974 241.391 442.974C242.327 442.974 243.173 443.184 243.929 443.604C244.685 444.012 245.279 444.6 245.711 445.368C246.155 446.136 246.377 447.03 246.377 448.05C246.377 449.07 246.149 449.97 245.693 450.75C245.249 451.518 244.643 452.112 243.875 452.532C243.107 452.952 242.255 453.162 241.319 453.162ZM241.319 451.722C241.907 451.722 242.459 451.584 242.975 451.308C243.491 451.032 243.905 450.618 244.217 450.066C244.541 449.514 244.703 448.842 244.703 448.05C244.703 447.258 244.547 446.586 244.235 446.034C243.923 445.482 243.515 445.074 243.011 444.81C242.507 444.534 241.961 444.396 241.373 444.396C240.773 444.396 240.221 444.534 239.717 444.81C239.225 445.074 238.829 445.482 238.529 446.034C238.229 446.586 238.079 447.258 238.079 448.05C238.079 448.854 238.223 449.532 238.511 450.084C238.811 450.636 239.207 451.05 239.699 451.326C240.191 451.59 240.731 451.722 241.319 451.722ZM250.169 439.68V453H248.531V439.68H250.169ZM261.96 447.69C261.96 448.002 261.942 448.332 261.906 448.68H254.022C254.082 449.652 254.412 450.414 255.012 450.966C255.624 451.506 256.362 451.776 257.226 451.776C257.934 451.776 258.522 451.614 258.99 451.29C259.47 450.954 259.806 450.51 259.998 449.958H261.762C261.498 450.906 260.97 451.68 260.178 452.28C259.386 452.868 258.402 453.162 257.226 453.162C256.29 453.162 255.45 452.952 254.706 452.532C253.974 452.112 253.398 451.518 252.978 450.75C252.558 449.97 252.348 449.07 252.348 448.05C252.348 447.03 252.552 446.136 252.96 445.368C253.368 444.6 253.938 444.012 254.67 443.604C255.414 443.184 256.266 442.974 257.226 442.974C258.162 442.974 258.99 443.178 259.71 443.586C260.43 443.994 260.982 444.558 261.366 445.278C261.762 445.986 261.96 446.79 261.96 447.69ZM260.268 447.348C260.268 446.724 260.13 446.19 259.854 445.746C259.578 445.29 259.2 444.948 258.72 444.72C258.252 444.48 257.73 444.36 257.154 444.36C256.326 444.36 255.618 444.624 255.03 445.152C254.454 445.68 254.124 446.412 254.04 447.348H260.268Z" fill="white"/>
<path d="M94.8311 419.252C92.9831 419.252 91.3271 418.952 89.8631 418.352C88.3991 417.752 87.2231 416.864 86.3351 415.688C85.4711 414.512 85.0151 413.096 84.9671 411.44H91.5191C91.6151 412.376 91.9391 413.096 92.4911 413.6C93.0431 414.08 93.7631 414.32 94.6511 414.32C95.5631 414.32 96.2831 414.116 96.8111 413.708C97.3391 413.276 97.6031 412.688 97.6031 411.944C97.6031 411.32 97.3871 410.804 96.9551 410.396C96.5471 409.988 96.0311 409.652 95.4071 409.388C94.8071 409.124 93.9431 408.824 92.8151 408.488C91.1831 407.984 89.8511 407.48 88.8191 406.976C87.7871 406.472 86.8991 405.728 86.1551 404.744C85.4111 403.76 85.0391 402.476 85.0391 400.892C85.0391 398.54 85.8911 396.704 87.5951 395.384C89.2991 394.04 91.5191 393.368 94.2551 393.368C97.0391 393.368 99.2831 394.04 100.987 395.384C102.691 396.704 103.603 398.552 103.723 400.928H97.0631C97.0151 400.112 96.7151 399.476 96.1631 399.02C95.6111 398.54 94.9031 398.3 94.0391 398.3C93.2951 398.3 92.6951 398.504 92.2391 398.912C91.7831 399.296 91.5551 399.86 91.5551 400.604C91.5551 401.42 91.9391 402.056 92.7071 402.512C93.4751 402.968 94.6751 403.46 96.3071 403.988C97.9391 404.54 99.2591 405.068 100.267 405.572C101.299 406.076 102.187 406.808 102.931 407.768C103.675 408.728 104.047 409.964 104.047 411.476C104.047 412.916 103.675 414.224 102.931 415.4C102.211 416.576 101.155 417.512 99.7631 418.208C98.3711 418.904 96.7271 419.252 94.8311 419.252ZM113.992 398.66V403.772H122.236V408.524H113.992V414.068H123.316V419H107.836V393.728H123.316V398.66H113.992ZM140.2 419L134.944 409.46H133.468V419H127.312V393.728H137.644C139.636 393.728 141.328 394.076 142.72 394.772C144.136 395.468 145.192 396.428 145.888 397.652C146.584 398.852 146.932 400.196 146.932 401.684C146.932 403.364 146.452 404.864 145.492 406.184C144.556 407.504 143.164 408.44 141.316 408.992L147.148 419H140.2ZM133.468 405.104H137.284C138.412 405.104 139.252 404.828 139.804 404.276C140.38 403.724 140.668 402.944 140.668 401.936C140.668 400.976 140.38 400.22 139.804 399.668C139.252 399.116 138.412 398.84 137.284 398.84H133.468V405.104ZM156.952 398.66V403.772H165.196V408.524H156.952V414.068H166.276V419H150.796V393.728H166.276V398.66H156.952ZM176.429 414.248H184.493V419H170.273V393.728H176.429V414.248ZM193.585 398.66V403.772H201.829V408.524H193.585V414.068H202.909V419H187.429V393.728H202.909V398.66H193.585ZM226.166 401.864C226.166 403.328 225.83 404.672 225.158 405.896C224.486 407.096 223.454 408.068 222.062 408.812C220.67 409.556 218.942 409.928 216.878 409.928H213.062V419H206.906V393.728H216.878C218.894 393.728 220.598 394.076 221.99 394.772C223.382 395.468 224.426 396.428 225.122 397.652C225.818 398.876 226.166 400.28 226.166 401.864ZM216.41 405.032C217.586 405.032 218.462 404.756 219.038 404.204C219.614 403.652 219.902 402.872 219.902 401.864C219.902 400.856 219.614 400.076 219.038 399.524C218.462 398.972 217.586 398.696 216.41 398.696H213.062V405.032H216.41ZM235.527 398.66V403.772H243.771V408.524H235.527V414.068H244.851V419H229.371V393.728H244.851V398.66H235.527Z" fill="white"/>
<path d="M265.299 393.728V398.66H255.003V403.988H262.707V408.776H255.003V419H248.847V393.728H265.299ZM271.631 396.824C270.551 396.824 269.663 396.512 268.967 395.888C268.295 395.24 267.959 394.448 267.959 393.512C267.959 392.552 268.295 391.76 268.967 391.136C269.663 390.488 270.551 390.164 271.631 390.164C272.687 390.164 273.551 390.488 274.223 391.136C274.919 391.76 275.267 392.552 275.267 393.512C275.267 394.448 274.919 395.24 274.223 395.888C273.551 396.512 272.687 396.824 271.631 396.824ZM274.691 398.912V419H268.535V398.912H274.691ZM290.348 413.78V419H287.216C284.984 419 283.244 418.46 281.996 417.38C280.748 416.276 280.124 414.488 280.124 412.016V404.024H277.676V398.912H280.124V394.016H286.28V398.912H290.312V404.024H286.28V412.088C286.28 412.688 286.424 413.12 286.712 413.384C287 413.648 287.48 413.78 288.152 413.78H290.348Z" fill="#1D1617"/>
<defs>
<linearGradient id="paint0_linear_1696_2242" x1="375" y1="812" x2="-127.149" y2="794.055" gradientUnits="userSpaceOnUse">
<stop stop-color="#1DBE5E"/>
<stop offset="1" stop-color="#18ADB7" stop-opacity="0.94"/>
</linearGradient>
<linearGradient id="paint1_linear_1696_2242" x1="234" y1="754" x2="118.57" y2="719.016" gradientUnits="userSpaceOnUse">
<stop stop-color="#1DBE5E"/>
<stop offset="1" stop-color="#18ADB7" stop-opacity="0.94"/>
</linearGradient>
</defs>
</svg>
